<svg width="43" height="43" viewBox="0 0 43 43" fill="none" xmlns="http://www.w3.org/2000/svg">
<path d="M25.6133 22.4258V17.6367C25.6133 16.3854 26.6315 15.3672 27.8828 15.3672H32.9219H33.1719V15.1172V10.0781V9.82812H32.9219H26.623C23.0118 9.82812 20.0742 12.7657 20.0742 16.377V22.4258H15.2852H15.0352V22.6758V27.7148V27.9648H15.2852H20.0742V42.75H6.29883C2.96369 42.75 0.25 40.0363 0.25 36.7012V6.29883C0.25 2.96369 2.96369 0.25 6.29883 0.25H36.7012C40.0363 0.25 42.75 2.96369 42.75 6.29883V36.7012C42.75 40.0363 40.0363 42.75 36.7012 42.75H25.6133V27.9648H31.8547H32.0665L32.1013 27.7559L32.9411 22.7169L32.9896 22.4258H32.6945H25.6133ZM27.6328 40.4805V40.7305H27.8828H36.7012C38.9231 40.7305 40.7305 38.9231 40.7305 36.7012V6.29883C40.7305 4.07689 38.9231 2.26953 36.7012 2.26953H6.29883C4.07689 2.26953 2.26953 4.07689 2.26953 6.29883V36.7012C2.26953 38.9231 4.07689 40.7305 6.29883 40.7305H17.8047H18.0547V40.4805V30.2344V29.9844H17.8047H13.0156V20.4062H17.8047H18.0547V20.1562V16.377C18.0547 11.6525 21.8986 7.80859 26.623 7.80859H35.1914V17.3867H27.8828H27.6328V17.6367V20.1562V20.4062H27.8828H35.3736L33.7773 29.9844H27.8828H27.6328V30.2344V40.4805Z" fill="#282828" stroke="white" stroke-width="0.5"/>
</svg>
