<svg width="43" height="43" viewBox="0 0 43 43" fill="none" xmlns="http://www.w3.org/2000/svg">
<path d="M36.7012 42.75H6.29883C2.96369 42.75 0.25 40.0363 0.25 36.7012V6.29883C0.25 2.96369 2.96369 0.25 6.29883 0.25H36.7012C40.0363 0.25 42.75 2.96369 42.75 6.29883V36.7012C42.75 40.0363 40.0363 42.75 36.7012 42.75ZM6.29883 2.26953C4.07689 2.26953 2.26953 4.07689 2.26953 6.29883V36.7012C2.26953 38.9231 4.07689 40.7305 6.29883 40.7305H36.7012C38.9231 40.7305 40.7305 38.9231 40.7305 36.7012V6.29883C40.7305 4.07689 38.9231 2.26953 36.7012 2.26953H6.29883Z" fill="#282828" stroke="white" stroke-width="0.5"/>
<path d="M32.5879 21.5C32.5879 27.6135 27.6135 32.5879 21.5 32.5879C15.3865 32.5879 10.4121 27.6135 10.4121 21.5C10.4121 15.3865 15.3865 10.4121 21.5 10.4121C27.6135 10.4121 32.5879 15.3865 32.5879 21.5ZM30.5684 21.5C30.5684 16.4994 26.5006 12.4316 21.5 12.4316C16.4994 12.4316 12.4316 16.4994 12.4316 21.5C12.4316 26.5006 16.4994 30.5684 21.5 30.5684C26.5006 30.5684 30.5684 26.5006 30.5684 21.5Z" fill="#282828" stroke="white" stroke-width="0.5"/>
<path d="M37.627 8.90234C37.627 10.8481 36.0434 12.4316 34.0977 12.4316C32.1519 12.4316 30.5684 10.8481 30.5684 8.90234C30.5684 6.95655 32.1519 5.37305 34.0977 5.37305C36.0434 5.37305 37.627 6.95655 37.627 8.90234ZM35.6074 8.90234C35.6074 8.06976 34.9302 7.39258 34.0977 7.39258C33.2651 7.39258 32.5879 8.06976 32.5879 8.90234C32.5879 9.73493 33.2651 10.4121 34.0977 10.4121C34.9302 10.4121 35.6074 9.73493 35.6074 8.90234Z" fill="#282828" stroke="white" stroke-width="0.5"/>
</svg>
