<svg width="222" height="60" viewBox="0 0 222 60" fill="none" xmlns="http://www.w3.org/2000/svg">
<path d="M36.6407 59.4778H31.0151V25.4295H36.6407V59.4778Z" fill="#282828"/>
<path d="M57.0414 39.4099H27.9109V33.8249H48.4985L34.7982 2.20805L39.9657 0L57.0414 39.4099Z" fill="#282828"/>
<path d="M29.1385 39.4099H0L17.0817 0L22.2492 2.20805L8.54487 33.8249H29.1385V39.4099Z" fill="#282828"/>
<path d="M26.0343 59.4778H20.4087V25.4295H26.0343V59.4778Z" fill="#282828"/>
<path d="M78.8815 44C77.5135 44 76.3375 43.52 75.3535 42.56C74.3935 41.576 73.9135 40.4 73.9135 39.032V31.184H90.4015V29.096C90.4015 28.424 90.3535 28.052 90.2575 27.98C90.1855 27.884 89.8135 27.836 89.1415 27.836H73.9135V23.12H90.1495C91.5175 23.12 92.6815 23.612 93.6415 24.596C94.6255 25.556 95.1175 26.72 95.1175 28.088V44H78.8815ZM79.8895 39.284H90.4015V35.432H78.6295V38.024C78.6295 38.696 78.6655 39.08 78.7375 39.176C78.8335 39.248 79.2175 39.284 79.8895 39.284ZM98.0324 44V23.12H123.916C125.284 23.12 126.448 23.612 127.408 24.596C128.392 25.556 128.884 26.72 128.884 28.088V44H124.204V29.096C124.204 28.424 124.156 28.052 124.06 27.98C123.964 27.884 123.592 27.836 122.944 27.836H117.112C116.44 27.836 116.056 27.884 115.96 27.98C115.888 28.052 115.852 28.424 115.852 29.096V44H111.1V29.096C111.1 28.424 111.052 28.052 110.956 27.98C110.884 27.884 110.512 27.836 109.84 27.836H104.008C103.336 27.836 102.952 27.884 102.856 27.98C102.784 28.052 102.748 28.424 102.748 29.096V44H98.0324ZM137.976 44C136.608 44 135.432 43.52 134.448 42.56C133.488 41.576 133.008 40.4 133.008 39.032V38.24H137.724V38.456C137.724 38.84 137.76 39.08 137.832 39.176C137.928 39.248 138.168 39.284 138.552 39.284H148.668C149.028 39.284 149.256 39.248 149.352 39.176C149.448 39.08 149.496 38.84 149.496 38.456V36.764C149.496 36.38 149.448 36.152 149.352 36.08C149.256 35.984 149.028 35.936 148.668 35.936H137.976C136.608 35.936 135.432 35.444 134.448 34.46C133.488 33.476 133.008 32.312 133.008 30.968V28.088C133.008 26.72 133.488 25.556 134.448 24.596C135.432 23.612 136.608 23.12 137.976 23.12H149.244C150.612 23.12 151.788 23.612 152.772 24.596C153.756 25.556 154.248 26.72 154.248 28.088V28.88H149.496V28.664C149.496 28.28 149.448 28.052 149.352 27.98C149.256 27.884 149.028 27.836 148.668 27.836H138.552C138.168 27.836 137.928 27.884 137.832 27.98C137.76 28.052 137.724 28.28 137.724 28.664V30.356C137.724 30.74 137.76 30.98 137.832 31.076C137.928 31.148 138.168 31.184 138.552 31.184H149.244C150.612 31.184 151.788 31.676 152.772 32.66C153.756 33.644 154.248 34.808 154.248 36.152V39.032C154.248 40.4 153.756 41.576 152.772 42.56C151.788 43.52 150.612 44 149.244 44H137.976ZM162.835 44C161.467 44 160.291 43.52 159.307 42.56C158.347 41.576 157.867 40.4 157.867 39.032V16.712H162.583V23.12H170.719V27.836H162.583V38.024C162.583 38.696 162.619 39.08 162.691 39.176C162.787 39.248 163.171 39.284 163.843 39.284H170.719V44H162.835ZM178.549 44C177.181 44 176.005 43.52 175.021 42.56C174.061 41.576 173.581 40.4 173.581 39.032V28.088C173.581 26.72 174.061 25.556 175.021 24.596C176.005 23.612 177.181 23.12 178.549 23.12H189.817C191.185 23.12 192.349 23.612 193.309 24.596C194.293 25.556 194.785 26.72 194.785 28.088V39.032C194.785 40.4 194.293 41.576 193.309 42.56C192.349 43.52 191.185 44 189.817 44H178.549ZM179.557 39.284H188.809C189.481 39.284 189.853 39.248 189.925 39.176C190.021 39.08 190.069 38.696 190.069 38.024V29.096C190.069 28.424 190.021 28.052 189.925 27.98C189.853 27.884 189.481 27.836 188.809 27.836H179.557C178.885 27.836 178.501 27.884 178.405 27.98C178.333 28.052 178.297 28.424 178.297 29.096V38.024C178.297 38.696 178.333 39.08 178.405 39.176C178.501 39.248 178.885 39.284 179.557 39.284ZM197.7 44V23.12H213.936C215.304 23.12 216.468 23.612 217.428 24.596C218.412 25.556 218.904 26.72 218.904 28.088V44H214.188V29.096C214.188 28.424 214.14 28.052 214.044 27.98C213.972 27.884 213.6 27.836 212.928 27.836H203.676C203.004 27.836 202.62 27.884 202.524 27.98C202.452 28.052 202.416 28.424 202.416 29.096V44H197.7Z" fill="#282828"/>
</svg>
