<svg width="43" height="43" viewBox="0 0 43 43" fill="none" xmlns="http://www.w3.org/2000/svg">
<g clip-path="url(#clip0)">
<path d="M42.1462 23.4441L42.1463 23.4443C44.2572 28.68 40.5452 33.7917 35.6325 33.7917H22.3831C21.7795 33.7917 21.2822 33.2944 21.2822 32.6907V10.3702C21.2822 9.81284 21.7009 9.34503 22.253 9.28385L22.2538 9.28377C25.3952 8.92595 28.4906 9.83928 30.9617 11.8453C33.1627 13.632 34.6895 16.1787 35.264 18.9704L35.3045 19.1671L35.5054 19.17C38.5794 19.2134 41.2445 21.2027 42.1462 23.4441ZM23.4715 31.3542V31.6042H23.7215H35.6325C39.0288 31.6042 41.6348 28.0292 40.1215 24.2627L40.1214 24.2624C39.8106 23.4924 39.0794 22.6569 38.1147 22.0825C37.145 21.5051 35.9167 21.1779 34.6067 21.4617L34.6059 21.4619C33.9777 21.6 33.3497 21.1522 33.2871 20.4962L33.287 20.4961C33.0263 17.7771 31.6791 15.2429 29.5856 13.5426L29.5855 13.5426C27.8976 12.1728 25.8513 11.4308 23.7254 11.3977L23.4715 11.3937V11.6476V31.3542ZM33.0382 20.52C33.1152 21.3262 33.8856 21.8762 34.6596 21.706C37.1321 21.1703 39.3162 22.9351 39.8895 24.3559L33.0382 20.52Z" fill="#282828" stroke="white" stroke-width="0.5"/>
<path d="M18.2129 13.7474V32.6979C18.2129 33.0742 18.0733 33.3382 17.8776 33.5109C17.6771 33.6878 17.4024 33.7817 17.1192 33.7816C16.836 33.7815 16.5613 33.6874 16.3607 33.5104C16.1649 33.3377 16.0254 33.0737 16.0254 32.6979V13.7474C16.0254 13.3711 16.165 13.1071 16.3607 12.9344C16.5612 12.7576 16.8359 12.6637 17.1191 12.6638C17.4022 12.6639 17.677 12.7579 17.8776 12.9349C18.0734 13.1077 18.2129 13.3716 18.2129 13.7474Z" fill="#282828" stroke="white" stroke-width="0.5"/>
<path d="M12.9529 18.9164V32.6979C12.9529 33.0743 12.8133 33.3383 12.6176 33.511C12.4171 33.6878 12.1424 33.7817 11.8592 33.7816C11.576 33.7815 11.3013 33.6874 11.1007 33.5105C10.9049 33.3377 10.7654 33.0737 10.7654 32.6979V18.9164C10.7654 18.5401 10.9049 18.2761 11.1007 18.1034C11.3012 17.9266 11.5759 17.8327 11.859 17.8328C12.1422 17.8329 12.417 17.9269 12.6176 18.1039C12.8134 18.2767 12.9529 18.5406 12.9529 18.9164Z" fill="#282828" stroke="white" stroke-width="0.5"/>
<path d="M7.69605 18.9164V32.6979C7.69605 33.0743 7.55649 33.3383 7.36074 33.511C7.16026 33.6878 6.88555 33.7817 6.60238 33.7816C6.3192 33.7815 6.04443 33.6874 5.84387 33.5105C5.64805 33.3377 5.50854 33.0737 5.50854 32.6979V18.9164C5.50854 18.5401 5.64811 18.2761 5.84385 18.1034C6.04433 17.9266 6.31904 17.8327 6.60221 17.8328C6.88539 17.8329 7.16016 17.9269 7.36072 18.1039C7.55654 18.2767 7.69605 18.5406 7.69605 18.9164Z" fill="#282828" stroke="white" stroke-width="0.5"/>
<path d="M2.4375 22.3618V32.6979C2.4375 33.0742 2.29794 33.3382 2.1022 33.5109C1.90171 33.6878 1.62701 33.7817 1.34383 33.7816C1.06066 33.7815 0.785881 33.6874 0.585325 33.5104C0.389507 33.3377 0.25 33.0737 0.25 32.6979V22.3618C0.25 21.9854 0.38956 21.7214 0.585302 21.5487C0.785787 21.3719 1.06049 21.278 1.34367 21.2781C1.62684 21.2782 1.90162 21.3723 2.10217 21.5492C2.29799 21.722 2.4375 21.986 2.4375 22.3618Z" fill="#282828" stroke="white" stroke-width="0.5"/>
</g>
<defs>
<clipPath id="clip0">
<rect width="43" height="43" fill="white"/>
</clipPath>
</defs>
</svg>
