<svg width="43" height="33" viewBox="0 0 43 33" fill="none" xmlns="http://www.w3.org/2000/svg">
<path d="M16.2864 10.9006C16.2864 10.3662 16.5593 9.887 17.0191 9.61445L27.9986 14.787C28.4805 15.0507 28.7783 15.5551 28.7763 16.104C28.7741 16.6531 28.4725 17.1552 27.9893 17.4153L18.4893 22.5235L18.4892 22.5236C18.2648 22.6444 18.022 22.704 17.7807 22.704C17.5173 22.704 17.2536 22.633 17.0143 22.49C16.5577 22.2173 16.2864 21.7388 16.2864 21.2071V10.9006ZM18.4989 9.58917L27.9986 14.787L17.0191 9.61443C17.4786 9.34221 18.0301 9.33268 18.4989 9.58916C18.4989 9.58917 18.4989 9.58917 18.4989 9.58917ZM18.3062 19.9105V20.3288L18.6746 20.1307L25.7746 16.3127L26.1805 16.0944L25.7762 15.8732L18.6762 11.9883L18.3062 11.7858V12.2076V19.9105Z" fill="#282828" stroke="white" stroke-width="0.5"/>
<path d="M40.6053 3.05644L40.6038 3.05487C38.9383 1.28163 37.0555 1.06533 36.1237 0.959344L40.6053 3.05644ZM40.6053 3.05644C41.3105 3.7942 41.7617 4.90689 42.0407 5.90373C42.3177 6.89375 42.4156 7.73471 42.433 7.90037L40.6053 3.05644ZM21.4985 0.457327L21.4933 0.457554L21.4933 0.457357C21.407 0.457687 12.8337 0.51413 7.1074 0.926545L7.03923 0.933627C6.98768 0.940507 6.93189 0.94697 6.87488 0.953573C6.86238 0.955021 6.84982 0.956476 6.83724 0.957943L6.83695 0.957977C5.91833 1.064 4.05696 1.27964 2.38596 3.11781L2.38494 3.11893C1.71222 3.85002 1.26593 4.94486 0.982537 5.9233C0.701992 6.89192 0.590249 7.71335 0.56944 7.87937L0.56502 7.91886C0.549081 8.09854 0.25 11.4981 0.25 14.9086V18.1262C0.25 21.5411 0.549871 24.9452 0.565086 25.117L0.567132 25.1363C0.584531 25.299 0.68224 26.1244 0.958269 27.0996C1.23612 28.0813 1.6855 29.181 2.38804 29.9197L2.39147 29.9233L2.39143 29.9234C3.95034 31.6294 5.92085 31.8595 7.0247 31.9859L7.04469 31.9882C7.20584 32.0066 7.35572 32.0238 7.46302 32.0424L7.55279 32.0548C10.828 32.3656 21.0945 32.5193 21.5369 32.5256L21.5396 32.5256L21.5465 32.5258L21.5534 32.5257L21.5587 32.5255C21.6451 32.5253 30.2179 32.4688 35.8929 32.0564L21.4985 0.457327ZM21.4985 0.457327L21.5065 0.457357C21.5929 0.457687 30.166 0.514133 35.8411 0.926528L35.9088 0.933624C35.9746 0.942355 36.0473 0.950675 36.1236 0.959336L21.4985 0.457327ZM40.4237 24.9262L40.4235 24.9261C40.3682 25.355 40.2298 26.053 40.0166 26.7415C39.8067 27.4195 39.5116 28.1318 39.1239 28.5535C37.9888 29.8019 36.809 29.9268 35.9929 30.0131L35.9918 30.0132L35.9916 30.0133C35.8949 30.0234 35.807 30.033 35.7282 30.0429L35.7152 30.0445L35.7152 30.0441C30.2074 30.4424 21.9384 30.5034 21.5588 30.5057L21.5537 30.5057V30.5057C21.133 30.4996 10.9794 30.3444 7.78477 30.0477L7.77619 30.0469L7.76768 30.0455C7.61162 30.02 7.44141 30.0003 7.2549 29.9792L7.25453 29.9792L7.23666 29.9771C6.30067 29.8699 4.93107 29.713 3.87665 28.5543C3.87625 28.5538 3.87585 28.5534 3.87545 28.5529L3.85678 28.533C3.85637 28.5325 3.85595 28.5321 3.85554 28.5317C3.47228 28.1316 3.18279 27.4608 2.97689 26.8007C2.76775 26.1303 2.63217 25.4284 2.57681 24.9317L2.57617 24.9259L2.57624 24.9259C2.55608 24.6966 2.26985 21.368 2.26985 18.1262V14.9086C2.26985 11.7151 2.54819 8.42893 2.57524 8.11979L2.57617 8.10919L2.5764 8.10922C2.64206 7.60639 2.78782 6.89988 3.00235 6.22496C3.21382 5.55967 3.50396 4.88603 3.87594 4.48129C5.0426 3.19844 6.28431 3.055 7.0668 2.96462L7.06848 2.96442L7.06862 2.9644L7.0865 2.96233C7.15352 2.95456 7.21429 2.94751 7.27056 2.94022L7.27767 2.9393L7.28481 2.93879C12.816 2.54259 21.0327 2.48042 21.4865 2.47698L21.498 2.4769L21.5016 2.47687C21.7988 2.47886 30.1243 2.53853 35.6627 2.9388L35.6759 2.93975L35.6758 2.9401C35.7412 2.9483 35.8127 2.95655 35.8913 2.9656L35.8947 2.966L35.8951 2.96604L35.8992 2.96651C36.7001 3.05778 37.9738 3.20293 39.1347 4.44111L40.4237 24.9262ZM40.4237 24.9262L40.4246 24.9159C40.451 24.6131 40.73 21.3233 40.73 18.1262V14.9086C40.73 11.6599 40.4428 8.32407 40.4236 8.1074L40.4236 8.10739L40.4231 8.1023C40.3678 7.59618 40.2323 6.88181 40.0233 6.20125C39.8175 5.53153 39.5281 4.85187 39.1441 4.45112C39.1438 4.45074 39.1434 4.45036 39.1431 4.44998L39.1349 4.44129L40.4237 24.9262Z" fill="#282828" stroke="white" stroke-width="0.5"/>
</svg>
